<?xml version="1.0" encoding="UTF-8"?><svg id="Capa_2" xmlns="http://www.w3.org/2000/svg" viewBox="0 0 99.02 59.35"><defs><style>.cls-1{fill:#fbc47b;}</style></defs><g id="Capa_2-2"><g><path class="cls-1" d="M97.31,27.61c-.95,0-1.72,.87-1.72,1.93v.27c0,1.07,.77,1.93,1.72,1.93s1.72-.87,1.72-1.93v-.27c0-1.07-.77-1.93-1.72-1.93Z"/><path class="cls-1" d="M90.31,0H8.65c-.3,0-.59,.05-.87,.12C3.39,.85,0,5.12,0,10.28V49.26c0,5.57,4.01,10.09,8.95,10.09H90.07c4.94,0,8.95-4.52,8.95-10.09v-12.25c0-1.07-.77-1.93-1.72-1.93s-1.72,.87-1.72,1.93v12.25c0,1.3-.35,2.5-.96,3.5-.26-.46-.61-.88-1.05-1.19l-29.71-20.5c-.87-.6-.88-2.01-.02-2.63l27.73-20.06c1.07-.77,1.71-2.01,1.83-3.36,1.32,1.08,2.18,2.83,2.18,4.81v3.98c0,1.07,.77,1.93,1.72,1.93s1.72-.87,1.72-1.93v-3.98c0-5.42-3.9-9.82-8.72-9.82Zm-.72,53.34c.53,.36,.3,1.28-.32,1.28H9.37c-.61,0-.85-.9-.33-1.27l27.72-20.3c.75-.55,1.73-.54,2.47,.03l7.36,5.65c.89,.68,2.06,.7,2.96,.05l8.06-5.83c.72-.52,1.64-.53,2.37-.03l29.6,20.42Zm.15-48.22l-40.43,29.25c-.72,.52-1.64,.5-2.34-.04l-13.71-10.52c-.79-.6-1.86-.37-2.39,.52h0c-.53,.88-.32,2.08,.46,2.68l1.9,1.46c.81,.62,.8,1.98-.02,2.59L5.07,51.64c-.32,.24-.59,.54-.81,.88-.52-.95-.83-2.06-.83-3.26V10.28c0-1.73,.61-3.29,1.6-4.44,.27,.83,.76,1.57,1.45,2.1l9.68,7.43c.79,.6,1.86,.37,2.39-.52h0c.53-.88,.32-2.08-.46-2.68L8.41,4.73c-.06-.05-.26-.2-.17-.53,.04-.16,.12-.24,.2-.29,.22-.03,.44-.05,.67-.05H89.41c.37,0,.52,.26,.58,.49,.06,.22,.06,.53-.25,.76Z"/></g></g></svg>