<?xml version="1.0" encoding="UTF-8"?><svg id="Capa_2" xmlns="http://www.w3.org/2000/svg" viewBox="0 0 60.54 60.16"><defs><style>.cls-1{fill:#fbc47b;}</style></defs><g id="Capa_2-2"><g><path class="cls-1" d="M54.33,59.76h-11.83c-2.72,0-4.94-2.22-4.94-4.94v-12.45c0-2.43,1.98-4.41,4.41-4.41h2c.93,0,1.74-.63,1.97-1.54l1.72-6.99h-5.06c-2.77,0-5.03-2.26-5.03-5.03v-.43c0-2.43,1.97-4.4,4.4-4.4h4.03c1.17,0,2.13-.96,2.13-2.13v-4.66c0-1.17-.96-2.13-2.13-2.13h-8.04c-4.92,0-8.93,4-8.93,8.93v4.19c0,2.69-2.19,4.89-4.89,4.89h-.96c-.55,0-1,.45-1,1v6.53c0,.55,.45,1,1,1h2.25c2.42,0,4.38,1.96,4.38,4.38v13.06c0,2.84-2.31,5.14-5.14,5.14h-.28c-.94,0-1.7-.76-1.7-1.7s.76-1.7,1.7-1.7h.28c.96,0,1.74-.78,1.74-1.74v-13.06c0-.54-.44-.97-.97-.97h-2.25c-2.43,0-4.4-1.98-4.4-4.4v-6.53c0-2.43,1.98-4.41,4.4-4.41h.96c.82,0,1.48-.66,1.48-1.48v-4.19c0-6.8,5.53-12.33,12.33-12.33h8.04c3.05,0,5.54,2.48,5.54,5.54v4.66c0,3.05-2.48,5.54-5.54,5.54h-4.03c-.55,0-.99,.45-.99,.99v.43c0,.9,.73,1.62,1.62,1.62h5.21c1.02,0,1.96,.46,2.59,1.26,.63,.8,.85,1.83,.61,2.82l-1.75,7.13c-.6,2.44-2.77,4.14-5.27,4.14h-2c-.55,0-1,.45-1,1v12.45c0,.85,.69,1.53,1.53,1.53h11.83c1.54,0,2.8-1.26,2.8-2.8V6.21c0-1.54-1.26-2.8-2.8-2.8H6.21c-1.54,0-2.8,1.26-2.8,2.8V53.55c0,1.54,1.26,2.8,2.8,2.8h4.5c.94,0,1.7,.76,1.7,1.7s-.76,1.7-1.7,1.7H6.21c-3.42,0-6.21-2.78-6.21-6.21V6.21C0,2.78,2.78,0,6.21,0H54.33c3.42,0,6.21,2.78,6.21,6.21V53.55c0,3.42-2.78,6.21-6.21,6.21Z"/><circle class="cls-1" cx="17.07" cy="58.33" r="1.84"/></g></g></svg>