<?xml version="1.0" encoding="UTF-8"?><svg id="Capa_2" xmlns="http://www.w3.org/2000/svg" viewBox="0 0 58.58 58.68"><defs><style>.cls-1{fill:#fbc47b;}</style></defs><g id="Capa_2-2"><g><g><path class="cls-1" d="M44.99,0H16.42c-.92,0-1.74,.67-1.83,1.59-.1,1.05,.72,1.93,1.75,1.93h28.65c5.56,0,10.07,4.51,10.07,10.07v31.5c0,5.56-4.51,10.07-10.07,10.07H15.35c-7.44,0-11.83-4.51-11.83-10.07V18.93c0-.97-.79-1.76-1.76-1.76h0c-.97,0-1.76,.79-1.76,1.76v26.16c0,7.51,5.74,13.59,15.35,13.59h29.64c7.51,0,13.59-6.09,13.59-13.59V13.59C58.58,6.09,52.5,0,44.99,0Z"/><path class="cls-1" d="M20.64,22.94c-.91,.09-1.59,.91-1.59,1.83v3.9c0,5.53,4.29,10.25,9.82,10.46,5.81,.22,10.61-4.44,10.61-10.21v-.89c0-5.14-4.5-9.39-10.22-9.39h-2.05c-.82,0-1.48,.66-1.48,1.48v.56c0,.82,.66,1.48,1.48,1.48h2.05c3.69,0,6.75,2.78,6.7,5.87v.69c0,3.6-2.76,6.7-6.36,6.88-3.84,.19-7.03-2.88-7.03-6.69v-4.23c0-1.03-.88-1.85-1.93-1.75Z"/><path class="cls-1" d="M38.01,8.33H19.75c-6.54,0-11.84,5.3-11.84,11.84v15.79c0,6.85,5.55,12.4,12.4,12.4h20.64c.97,0,1.76-.79,1.76-1.76h0c0-.97-.79-1.76-1.76-1.76H20.31c-4.9,0-8.88-3.98-8.88-8.88v-15.79c0-4.59,3.72-8.32,8.32-8.32h18.26c4.6,0,8.34,3.73,8.34,8.34v20.55c0,.97,.79,1.76,1.76,1.76h0c.97,0,1.76-.79,1.76-1.76V20.18c0-6.55-5.31-11.86-11.86-11.86Z"/></g><circle class="cls-1" cx="39.81" cy="18.2" r="2.69"/></g></g></svg>