<?xml version="1.0" encoding="UTF-8"?><svg id="Capa_2" xmlns="http://www.w3.org/2000/svg" viewBox="0 0 63.34 60.37"><defs><style>.cls-1{fill:#fbc47b;}</style></defs><g id="Capa_2-2"><g><path class="cls-1" d="M54.47,60.37h-4.14c-3.61,0-6.55-2.94-6.55-6.55v-15.54c0-1.67-1.36-3.03-3.03-3.03h-1.4c-1.67,0-3.03,1.36-3.03,3.03v15.77c0,3.48-2.83,6.32-6.32,6.32h-.11c-1.01,0-1.82-.82-1.82-1.82s.82-1.82,1.82-1.82h.11c1.47,0,2.67-1.2,2.67-2.67v-15.77c0-3.68,2.99-6.67,6.67-6.67h1.4c3.68,0,6.67,2.99,6.67,6.67v15.54c0,1.6,1.3,2.9,2.9,2.9h4.14c2.88,0,5.22-2.34,5.22-5.22V30.18c0-4.77-8.32-10.42-15.34-10.42s-8.83,3.19-8.92,3.33l-3.35,5.18-.02-6.15c0-1.19-.97-2.15-2.15-2.15h-7.06c-1.67,0-3.03,1.36-3.03,3.03v31.33c0,3.33-2.71,6.04-6.04,6.04H6.04C2.71,60.37,0,57.66,0,54.33V20.34c-.04-.52,.14-1.06,.49-1.52,.74-.95,2.35-1.92,8.74-1.92,2.59,0,4.47-.66,5.61-1.95,1.67-1.9,1.33-4.7,1.33-4.73v-.17c-.05-.65-.5-6.41-6.36-6.41-2.29,0-3.95,.58-4.96,1.72-1.47,1.68-1.19,4.15-1.19,4.17,.13,1-.57,1.91-1.57,2.04-1,.13-1.91-.57-2.04-1.57-.02-.17-.51-4.12,2.06-7.05C3.85,1,6.44,0,9.82,0c4.96,0,7.43,2.75,8.64,5.06,1.13,2.17,1.31,4.28,1.34,4.77,.08,.68,.38,4.56-2.18,7.5-1.86,2.14-4.68,3.22-8.38,3.22-3.38,0-4.93,.3-5.59,.49V54.33c0,1.32,1.07,2.39,2.39,2.39h7.74c1.32,0,2.39-1.07,2.39-2.39V23c0-3.68,2.99-6.67,6.67-6.67h7.06c1.98,0,3.72,.99,4.77,2.5,1.85-1.33,4.92-2.71,9.67-2.71,8.37,0,18.99,6.62,18.99,14.07v21.31c0,4.89-3.98,8.87-8.87,8.87Z"/><circle class="cls-1" cx="24.58" cy="58.47" r="1.9"/></g></g></svg>