<?xml version="1.0" encoding="UTF-8"?><svg id="Capa_2" xmlns="http://www.w3.org/2000/svg" viewBox="0 0 72.33 72.33"><defs><style>.cls-1{fill:#fbc47b;}</style></defs><g id="Capa_2-2"><g><path class="cls-1" d="M46.52,37.72c-.79,0-1.46-.6-1.55-1.4-.58-5.74-6.34-8.79-6.4-8.82-.76-.39-1.06-1.33-.67-2.09,.39-.76,1.32-1.07,2.09-.68,.3,.15,7.32,3.82,8.08,11.27,.09,.85-.54,1.62-1.39,1.7-.05,0-.11,0-.16,0Z"/><path class="cls-1" d="M56.02,36.61c-.82,0-1.5-.64-1.55-1.47-.62-10.67-10.66-15.6-10.76-15.65-.77-.37-1.1-1.3-.73-2.07,.37-.77,1.29-1.1,2.07-.74,.48,.23,11.81,5.74,12.53,18.28,.05,.86-.61,1.59-1.46,1.64-.03,0-.06,0-.09,0Z"/><path class="cls-1" d="M64.36,57.96c-.29,0-.59-.08-.85-.25-.72-.47-.92-1.43-.45-2.15,2.11-3.23,3.39-6.51,3.41-6.54,.31-.8,1.21-1.2,2.01-.89,.8,.31,1.2,1.21,.89,2.01-.06,.15-1.41,3.61-3.7,7.12-.3,.46-.8,.7-1.3,.7Z"/><g><path class="cls-1" d="M19.23,40.9h0c.84-.31,1.24-1.27,.88-2.08-.77-1.71-1.42-3.4-1.98-5.03-.28-.82-1.18-1.25-2-.95h0c-.79,.29-1.2,1.16-.93,1.96,.59,1.71,1.27,3.48,2.08,5.28,.34,.75,1.19,1.12,1.96,.83Z"/><path class="cls-1" d="M52.9,53.05l-6.99-6.91c-1.21-1.19-2.92-1.72-4.59-1.41l-3.64,.68c-.34,.06-.69-.02-.96-.24-1.87-1.55-5.59-5.32-9.34-13.2-.13-.28-.1-.61,.08-.85l2.23-3c.86-1.16,1.08-2.67,.58-4.02l-3.86-10.39c-.33-.89-.94-1.68-1.77-2.14-1.02-.56-2.19-.63-3.26-.2-2.51,1.01-5.9,2.55-7.82,4.14-1.17,.97-1.79,2.44-1.67,3.95,.11,1.41,.42,4.2,1.18,7.76,.2,.92,1.17,1.45,2.06,1.12h0c.73-.27,1.14-1.03,.98-1.79-.72-3.37-1.01-6.02-1.12-7.34-.04-.49,.17-.98,.56-1.3,1.25-1.04,3.74-2.34,7-3.65,.23-.09,.43-.04,.53,0,.1,.04,.28,.15,.37,.39l3.9,10.52c.13,.36,.08,.77-.16,1.08l-2.23,3c-.88,1.18-1.02,2.74-.39,4.07,3.99,8.38,8.06,12.51,10.14,14.23,.99,.81,2.27,1.15,3.52,.91l3.64-.68c.67-.12,1.35,.09,1.83,.56l6.99,6.91c.53,.52,.56,1.38,.08,1.95-2.22,2.65-4.37,3.83-5.78,4.35-.51,.19-1.06,.2-1.55,.02-9.01-3.35-15.17-9.21-19.39-15.55-.39-.59-1.15-.83-1.82-.58h0c-.94,.35-1.31,1.48-.76,2.32,4.52,6.81,11.15,13.12,20.89,16.73,.58,.22,1.2,.32,1.82,.32s1.28-.11,1.9-.34c1.76-.66,4.42-2.1,7.08-5.27,1.52-1.8,1.39-4.51-.28-6.17Z"/></g><g><path class="cls-1" d="M61.71,58.81h0c-.61-.3-1.33-.15-1.81,.33-.07,.07-.13,.14-.2,.2-.5,.51-.6,1.29-.23,1.9h0c.53,.86,1.72,1,2.42,.28,.09-.09,.17-.17,.25-.26,.73-.75,.5-2.01-.45-2.47Z"/><path class="cls-1" d="M34.44,.04C15.93,.91,.91,15.93,.04,34.44c-.97,20.72,15.61,37.89,36.12,37.89,7.24,0,13.98-2.14,19.64-5.82,.68-.44,.92-1.32,.54-2.03h0c-.42-.81-1.45-1.08-2.22-.58-5.95,3.87-13.21,5.88-20.96,5.19-15.86-1.41-28.32-13.72-29.88-29.57C1.27,19.25,17.7,2.2,37.76,3.15c16.34,.77,29.78,13.63,31.31,29.91,.34,3.66,.07,7.21-.71,10.56-.17,.72,.12,1.5,.78,1.83,.9,.46,1.99-.04,2.23-1.01,.63-2.66,.97-5.43,.97-8.28C72.33,15.65,55.16-.93,34.44,.04Z"/></g></g></g></svg>