<?xml version="1.0" encoding="UTF-8"?><svg id="Capa_2" xmlns="http://www.w3.org/2000/svg" viewBox="0 0 71.53 60.48"><defs><style>.cls-1{fill:#50646c;}</style></defs><g id="Capa_2-2"><g><path class="cls-1" d="M26.41,60.48c-1.05,0-1.92-.83-1.97-1.88-.05-1.09,.79-2.01,1.88-2.06,15.01-.69,25.5-7.35,31.17-19.82,4.31-9.48,4.12-18.95,4.12-19.04l-.02-.94,.72-.61c2.44-2.08,3.75-3.62,4.45-4.68-.36,.15-.76,.33-1.17,.55l-1.44,.73-1.07-1.29c-.6-.76-.58-1.85,.05-2.59,1.09-1.28,1.69-2.44,1.74-3.34-3.8,2.63-7.26,2.01-7.43,1.98l-.37-.07-.32-.21c-4.66-2.99-10.11-2.72-10.17-2.72-7.27,.22-10,5.48-11.02,9.85-.68,2.91-3.63,4.76-6.58,4.13-6.62-1.41-15.92-7.78-19.74-10.56-4.03,2.95-.06,9.95,1.26,12.04,.49,.77,.52,1.75,.08,2.55-.44,.8-1.29,1.3-2.2,1.3h-.72c1.56,5.4,5.38,8.22,7.13,9.51,.17,.13,.33,.24,.46,.35,.76,.58,1.06,1.58,.76,2.48-.29,.85-1.05,1.43-1.93,1.51l-1.97,.25,5.75,4.74c1.53,1.26,1.99,3.4,1.09,5.07-.71,1.33-2.09,2.15-3.59,2.16-2.21,.01-5.46,.03-8.22,.03l3.91,3.35c.83,.71,.92,1.96,.21,2.78-.71,.83-1.96,.92-2.78,.21L.73,49.63c-.66-.56-.9-1.49-.6-2.3,.3-.81,1.08-1.36,1.95-1.36,1.59,0,9.17-.02,13.23-.05,.04,0,.1,0,.14-.09,0,0-.04-.09-.13-.16l-9.33-7.69-.17-.26c-.42-.64-.45-1.46-.08-2.13,.33-.61,.94-1.01,1.63-1.08l2.28-.29c-2.49-2.33-5.52-6.17-6.4-12.04l-.14-.9,.61-.73c.39-.44,.94-.7,1.53-.7h.61c-3.5-6.68-3.1-12.28,1.22-15.27,1.32-.91,3.06-.89,4.34,.04,2.76,2.01,12.24,8.68,18.36,9.98,.86,.18,1.72-.34,1.91-1.17,1.86-7.97,7.21-12.67,14.69-12.89,.2-.01,6.4-.36,12.07,3.09,.79,.03,3.1-.12,5.52-2.52l1.11-1.11,1.33,.84c.2,.12,1.95,1.29,2.32,3.69,.12,.76,.08,1.55-.11,2.35,.39-.03,.76-.01,1.11,.05l.82,.15,.47,.69c.77,1.13,1.71,4.4-5.47,10.77-.17,6.21-2.75,40.29-39.04,41.95-.03,0-.06,0-.09,0ZM3.29,46.63h0s0,0,0,0Z"/><circle class="cls-1" cx="17.44" cy="58.02" r="2.46"/></g></g></svg>