<?xml version="1.0" encoding="UTF-8"?><svg id="Capa_2" xmlns="http://www.w3.org/2000/svg" viewBox="0 0 817.3 354.39"><defs><style>.cls-1{fill:#c78b43;}.cls-1,.cls-2{stroke:#000;stroke-linejoin:round;stroke-width:7px;}.cls-2{fill:#fbc47b;}</style></defs><g id="Capa_3"><path class="cls-1" d="M717.34,3.51h0c53.24,0,96.46,43.22,96.46,96.46h0c0,53.24-43.22,96.46-96.46,96.46h-96.46V99.98c0-53.24,43.22-96.46,96.46-96.46Z"/><path class="cls-2" d="M100.74,157.96h95.49v95.9c0,53.55-43.48,97.03-97.03,97.03h0c-52.81,0-95.69-42.88-95.69-95.69h0c0-53.67,43.57-97.24,97.24-97.24Z"/><path class="cls-2" d="M429.86,3.51h-40.45s-58.92,0-58.92,0c-52.77,0-95.55,42.77-95.57,95.54l-.08,163.65c-1.49,17.76-8.4,58.74-40.24,88.19h40.21s58.99,0,58.99,0c52.78,0,95.57-42.78,95.57-95.56v-58.93s.04,.03,.04,.03V91.42s-.52-45.08,40.45-87.9Z"/><path class="cls-2" d="M622.84,3.5s0,0,0,0h-98.57c-53.23,.01-96.37,43.16-96.37,96.39v97.01l-.14-.47v38.7s0,0,0,0c0,0,.06,.36,.14,1.01v16.85c0,19.07-3.68,38.01-11.33,55.47-6.22,14.2-15.51,28.87-29.29,42.42,0,0,0,0,0,0h98.2s0,0,0,0c53.51,0,96.88-43.37,96.88-96.88V94.14c.45-9.93,4.49-58.28,40.49-90.63Z"/></g></svg>