<?xml version="1.0" encoding="UTF-8"?><svg id="Capa_2" xmlns="http://www.w3.org/2000/svg" viewBox="0 0 579 241.81"><defs><style>.cls-1{fill:#ffc57a;}.cls-2{fill:#c68a42;}</style></defs><g id="Capa_1-2"><path class="cls-1" d="M212.84,241.81c25.78,0,49.09-14.05,59.3-35.75,6.3-13.39,11.41-30.97,12.87-53.46l.29-75.41S280.08,32.99,323.97,0h-80.74C201.01,0,166.78,31.37,166.78,70.06v83.35c0,55.88-19.79,70.3-42.09,88.4h88.15Z"/><path class="cls-1" d="M456.63,0h0c-26.99,11.54-48.18,47.35-44.25,88.4v73.16c0,44.32-39.21,80.25-87.57,80.25h-67.56s2.78-2.63,2.78-2.63c9.77-9.23,17.64-20.02,23.09-31.87,10.7-23.24,15.41-48.55,13.59-73.93l.23-35.7,.04-16.37c.04-16.96,3.9-33.77,11.78-49.11,.16-.32,.33-.63,.49-.94C319.33,12.13,340.46,0,363.62,0h93.01Z"/><path class="cls-2" d="M501.05,0c-43.05,0-77.95,34.9-77.95,77.95v77.95h77.95c43.05,0,77.95-34.9,77.95-77.95S544.1,0,501.05,0Z"/><path class="cls-1" d="M0,163.85c0-43.05,34.9-77.95,77.95-77.95h77.95s0,77.95,0,77.95c0,43.05-34.9,77.95-77.95,77.95C34.9,241.81,0,206.91,0,163.85Z"/></g></svg>